<mxfile host="app.diagrams.net" modified="2023-08-21T23:17:06.795Z" agent="Mozilla/5.0 (Windows NT 10.0; Win64; x64) AppleWebKit/537.36 (KHTML, like Gecko) Chrome/116.0.0.0 Safari/537.36" etag="IfcOKnnT9tegi65m7vkY" version="21.6.8" type="github">
  <diagram name="Página-1" id="nn5EGg_BwB-sG3G9xNFf">
    <mxGraphModel dx="733" dy="365" grid="1" gridSize="10" guides="1" tooltips="1" connect="1" arrows="1" fold="1" page="1" pageScale="1" pageWidth="827" pageHeight="1169" math="0" shadow="0">
      <root>
        <mxCell id="0" />
        <mxCell id="1" parent="0" />
        <mxCell id="WtXh8gKo7lWlDF3OhKVx-2" value="" style="rounded=0;whiteSpace=wrap;html=1;" parent="1" vertex="1">
          <mxGeometry x="220" y="170" width="500" height="370" as="geometry" />
        </mxCell>
        <mxCell id="WtXh8gKo7lWlDF3OhKVx-7" style="edgeStyle=orthogonalEdgeStyle;rounded=0;orthogonalLoop=1;jettySize=auto;html=1;exitX=1;exitY=0.3333333333333333;exitDx=0;exitDy=0;exitPerimeter=0;entryX=0;entryY=0.5;entryDx=0;entryDy=0;" parent="1" source="WtXh8gKo7lWlDF3OhKVx-3" target="WtXh8gKo7lWlDF3OhKVx-5" edge="1">
          <mxGeometry relative="1" as="geometry">
            <Array as="points">
              <mxPoint x="210" y="353" />
              <mxPoint x="210" y="220" />
            </Array>
          </mxGeometry>
        </mxCell>
        <mxCell id="WtXh8gKo7lWlDF3OhKVx-10" style="edgeStyle=orthogonalEdgeStyle;rounded=0;orthogonalLoop=1;jettySize=auto;html=1;exitX=1;exitY=0.3333333333333333;exitDx=0;exitDy=0;exitPerimeter=0;" parent="1" source="WtXh8gKo7lWlDF3OhKVx-3" target="WtXh8gKo7lWlDF3OhKVx-8" edge="1">
          <mxGeometry relative="1" as="geometry">
            <Array as="points">
              <mxPoint x="210" y="353" />
              <mxPoint x="210" y="330" />
            </Array>
          </mxGeometry>
        </mxCell>
        <mxCell id="xe5nGQVsvzD296khlzgU-5" style="edgeStyle=orthogonalEdgeStyle;rounded=0;orthogonalLoop=1;jettySize=auto;html=1;exitX=1;exitY=0.3333333333333333;exitDx=0;exitDy=0;exitPerimeter=0;entryX=0.029;entryY=0.629;entryDx=0;entryDy=0;entryPerimeter=0;" edge="1" parent="1" source="WtXh8gKo7lWlDF3OhKVx-3" target="xe5nGQVsvzD296khlzgU-2">
          <mxGeometry relative="1" as="geometry">
            <Array as="points">
              <mxPoint x="210" y="353" />
              <mxPoint x="210" y="444" />
            </Array>
          </mxGeometry>
        </mxCell>
        <mxCell id="WtXh8gKo7lWlDF3OhKVx-3" value="Actor" style="shape=umlActor;verticalLabelPosition=bottom;verticalAlign=top;html=1;outlineConnect=0;" parent="1" vertex="1">
          <mxGeometry x="120" y="320" width="50" height="100" as="geometry" />
        </mxCell>
        <mxCell id="WtXh8gKo7lWlDF3OhKVx-5" value="Comprar por setor&amp;nbsp;" style="ellipse;whiteSpace=wrap;html=1;" parent="1" vertex="1">
          <mxGeometry x="260" y="190" width="180" height="60" as="geometry" />
        </mxCell>
        <mxCell id="WtXh8gKo7lWlDF3OhKVx-8" value="Comprar peça" style="ellipse;whiteSpace=wrap;html=1;" parent="1" vertex="1">
          <mxGeometry x="260" y="300" width="160" height="60" as="geometry" />
        </mxCell>
        <mxCell id="WtXh8gKo7lWlDF3OhKVx-9" value="Consulta de estoque&amp;nbsp;" style="ellipse;whiteSpace=wrap;html=1;" parent="1" vertex="1">
          <mxGeometry x="490" y="280" width="180" height="60" as="geometry" />
        </mxCell>
        <mxCell id="WtXh8gKo7lWlDF3OhKVx-17" value="" style="endArrow=open;endSize=12;dashed=1;html=1;rounded=0;exitX=1;exitY=0.5;exitDx=0;exitDy=0;entryX=0;entryY=0.667;entryDx=0;entryDy=0;entryPerimeter=0;" parent="1" source="WtXh8gKo7lWlDF3OhKVx-8" target="WtXh8gKo7lWlDF3OhKVx-9" edge="1">
          <mxGeometry x="-0.0077" width="160" relative="1" as="geometry">
            <mxPoint x="390" y="354.5" as="sourcePoint" />
            <mxPoint x="460" y="355" as="targetPoint" />
            <mxPoint as="offset" />
          </mxGeometry>
        </mxCell>
        <mxCell id="xe5nGQVsvzD296khlzgU-2" value="Comprar por valores" style="ellipse;whiteSpace=wrap;html=1;" vertex="1" parent="1">
          <mxGeometry x="274" y="400" width="140" height="70" as="geometry" />
        </mxCell>
        <mxCell id="xe5nGQVsvzD296khlzgU-6" value="" style="endArrow=open;endSize=12;dashed=1;html=1;rounded=0;exitX=1;exitY=0.5;exitDx=0;exitDy=0;entryX=0;entryY=1;entryDx=0;entryDy=0;" edge="1" parent="1" source="xe5nGQVsvzD296khlzgU-2" target="WtXh8gKo7lWlDF3OhKVx-9">
          <mxGeometry width="160" relative="1" as="geometry">
            <mxPoint x="414" y="410" as="sourcePoint" />
            <mxPoint x="550" y="340" as="targetPoint" />
          </mxGeometry>
        </mxCell>
        <mxCell id="xe5nGQVsvzD296khlzgU-7" value="" style="endArrow=open;endSize=12;dashed=1;html=1;rounded=0;exitX=0.928;exitY=0.722;exitDx=0;exitDy=0;entryX=0;entryY=0;entryDx=0;entryDy=0;exitPerimeter=0;" edge="1" parent="1" source="WtXh8gKo7lWlDF3OhKVx-5" target="WtXh8gKo7lWlDF3OhKVx-9">
          <mxGeometry width="160" relative="1" as="geometry">
            <mxPoint x="424" y="445" as="sourcePoint" />
            <mxPoint x="559" y="351" as="targetPoint" />
          </mxGeometry>
        </mxCell>
      </root>
    </mxGraphModel>
  </diagram>
</mxfile>
